<?xml version="1.0" standalone="no"?>
<!DOCTYPE svg PUBLIC "-//W3C//DTD SVG 1.1//EN" "http://www.w3.org/Graphics/SVG/1.1/DTD/svg11.dtd" >
<svg xmlns="http://www.w3.org/2000/svg">
<metadata>
This is a custom SVG webfont generated by Font Squirrel.
Copyright   : 251 Dutch Design Albert Jan Pool 1995 Published by FontShop International FontFont release 15
</metadata>
<defs>
<font id="DINbekLight" horiz-adv-x="1198" >
<font-face units-per-em="2048" ascent="1638" descent="-410" />
<missing-glyph horiz-adv-x="593" />
<glyph unicode=" "  horiz-adv-x="593" />
<glyph unicode="&#x09;" horiz-adv-x="593" />
<glyph unicode="&#xa0;" horiz-adv-x="593" />
<glyph unicode="!" horiz-adv-x="708" d="M311 0v156h156v-156h-156zM324 1663h129l-7 -1214h-114z" />
<glyph unicode="&#x22;" horiz-adv-x="952" d="M221 1298v365h148v-365h-148zM584 1298v365h147v-365h-147z" />
<glyph unicode="#" horiz-adv-x="1490" d="M197 561v103h239l60 356h-232v104h246l84 539h121l-86 -539h407l84 539h117l-84 -539h219v-104h-233l-58 -356h224v-103h-240l-88 -561h-121l92 561h-411l-86 -561h-119l88 561h-223zM553 664h410l57 356h-408z" />
<glyph unicode="$" horiz-adv-x="1370" d="M119 205l88 90q94 -94 194.5 -144.5t216.5 -50.5v688l-36 7q-180 20 -297 120q-131 109 -131 306t125 317q68 66 150.5 100.5t188.5 34.5v209h105v-209q113 0 220.5 -45t205.5 -131l-82 -82q-152 133 -344 152v-678l68 -8q193 -25 296 -113q145 -119 146 -322 q0 -201 -137 -325q-72 -63 -165 -98t-208 -35v-254h-105v252q-141 0 -265.5 56.5t-233.5 162.5zM279 1225q0 -143 88 -218t251 -102v662q-78 0 -141 -28t-110 -75q-88 -94 -88 -239zM723 100q90 0 156.5 26t124.5 75q102 88 102 239q0 154 -90 234q-55 49 -137 71l-156 25 v-670z" />
<glyph unicode="%" horiz-adv-x="1931" d="M162 1116v250q0 137 85 225t222 88q133 0 219 -88t86 -225v-250q0 -137 -86 -224t-219 -87t-220 87t-87 224zM264 1120q0 -225 205 -225q203 0 203 225v242q0 227 -203 227q-205 0 -205 -227v-242zM528 0l775 1663h104l-774 -1663h-105zM1157 297v250q0 137 86 225 t223 88q133 0 219.5 -88t86.5 -225v-250q0 -137 -86.5 -225t-219.5 -88t-221 89t-88 224zM1262 301q0 -229 204 -229q203 0 203 229v240q0 229 -203 229q-205 0 -204 -229v-240z" />
<glyph unicode="&#x26;" horiz-adv-x="1740" d="M197 461q0 176 116 307q68 76 265 209q-184 219 -185 369q0 137 98.5 234t239.5 97q137 0 237.5 -97t100.5 -237q0 -166 -190 -299l-125 -83l477 -578q55 84 76.5 169t21.5 245h123q0 -332 -145 -508l239 -289h-162l-161 197q-217 -211 -510 -211q-229 0 -372.5 131 t-143.5 344zM322 467q0 -162 107.5 -265.5t281.5 -103.5q236 0 442 185l-504 608q-168 -113 -221 -172q-106 -109 -106 -252zM518 1350q0 -104 164 -306l96 66q168 111 168 233q0 88 -62.5 155t-152.5 67q-92 0 -152.5 -60.5t-60.5 -154.5z" />
<glyph unicode="'" horiz-adv-x="589" d="M221 1298v365h148v-365h-148z" />
<glyph unicode="(" horiz-adv-x="661" d="M227 184v1295q0 129 43 217q33 59 154 186l82 -82l-72 -71q-16 -20 -32.5 -47t-20.5 -33q-35 -70 -35 -185v-1265q0 -111 35 -185q18 -45 125 -151l-82 -82l-90 92q-37 45 -64 94q-43 88 -43 217z" />
<glyph unicode=")" horiz-adv-x="661" d="M152 -133l71 72q16 18 32.5 45.5t23.5 33.5q33 70 32 181v1265q0 57 -7 99.5t-25.5 83.5t-126.5 149l86 86l90 -94q37 -39 65 -92q43 -90 43 -217v-1295q0 -135 -43 -217q-33 -66 -155 -186z" />
<glyph unicode="*" horiz-adv-x="1089" d="M168 1112l287 158l-287 160l51 88l281 -170l-6 329h104l-8 -329l280 170l52 -88l-287 -160l287 -158l-52 -90l-280 172l8 -330h-104l6 330l-281 -172z" />
<glyph unicode="+" d="M123 561v109h424v420h108v-420h422v-109h-422v-424h-108v424h-424z" />
<glyph unicode="," horiz-adv-x="602" d="M221 160h160v-320l-160 -157v477z" />
<glyph unicode="-" horiz-adv-x="993" d="M190 561v109h613v-109h-613z" />
<glyph unicode="." horiz-adv-x="614" d="M221 0v172h174v-172h-174z" />
<glyph unicode="/" horiz-adv-x="788" d="M0 -172l666 2007h122l-665 -2007h-123z" />
<glyph unicode="0" d="M164 430v803q0 195 123 319.5t313 124.5q186 0 311 -125t125 -319v-803q0 -195 -120.5 -319.5t-315.5 -124.5q-190 0 -313 125.5t-123 318.5zM283 440q0 -156 82 -245q84 -104 235 -105q150 0 234 98.5t84 251.5v781q0 154 -83 252t-235 98q-147 0 -235 -98 q-82 -100 -82 -252v-781z" />
<glyph unicode="1" d="M311 1262v141l301 260h119v-1663h-119v1528z" />
<glyph unicode="2" d="M168 0v104l668 877q94 121 94 258q0 152 -86 242t-234 90q-141 0 -225 -76q-96 -90 -96 -256h-119q0 190 118 314t322 124q193 0 318 -121q59 -59 90 -136t31 -181q0 -168 -115 -319l-623 -816h738v-104h-881z" />
<glyph unicode="3" d="M98 403h119q0 -74 32 -136t87 -105q94 -74 235 -74q156 0 254.5 96.5t98.5 259.5q0 354 -361 355h-28v104h28q328 0 328 334q0 158 -92 247t-230 89q-147 0 -231 -82q-84 -76 -100 -221h-119q0 180 145 301q121 109 305 108q197 0 320 -120.5t123 -321.5 q0 -276 -238 -377q270 -92 270 -416q0 -213 -135 -336.5t-338 -123.5t-325 102q-70 59 -109 137t-39 180z" />
<glyph unicode="4" d="M100 272v107l613 1284h125l-611 -1284h531v526h121v-526h221v-107h-221v-272h-121v272h-658z" />
<glyph unicode="5" d="M172 367h119q37 -279 313 -279q141 0 230 84q100 100 100 373q0 442 -311 442q-244 0 -301 -174h-105v850h799v-107h-694v-587q106 125 315 125q180 0 281 -103q135 -135 135 -446q0 -313 -129 -443q-119 -119 -320 -118q-397 0 -432 383z" />
<glyph unicode="6" d="M166 453q0 160 94 348l426 862h119l-383 -768q88 39 194 39q197 0 318 -135q113 -127 113 -330q0 -205 -118 -344t-323 -139q-201 0 -320.5 131t-119.5 336zM285 461q0 -170 86 -270.5t233 -100.5t235.5 102.5t88.5 268.5q0 156 -82 258q-90 111 -242 110 q-147 0 -233 -100t-86 -268z" />
<glyph unicode="7" d="M201 1296v367h870v-107l-588 -1556h-121l588 1556h-631v-260h-118z" />
<glyph unicode="8" d="M127 449q0 272 262 415q-227 123 -227 377q0 188 124 312t314 124t314 -123.5t124 -312.5q0 -256 -225 -377q260 -137 260 -415q0 -197 -135 -330t-338 -133q-205 0 -339 133t-134 330zM246 449q0 -152 101.5 -255.5t252.5 -103.5q152 0 253 103.5t101 255.5t-102 255 t-252 103q-147 0 -250.5 -103t-103.5 -255zM281 1241q0 -145 88 -236.5t231 -91.5q139 0 229.5 92.5t90.5 235.5q0 145 -88.5 237.5t-231.5 92.5q-139 0 -229 -93.5t-90 -236.5z" />
<glyph unicode="9" d="M154 1194q0 205 117.5 344t322.5 139q203 0 321.5 -130t118.5 -337q0 -160 -94 -348l-426 -862h-119l383 768q-88 -39 -196 -39q-197 0 -312.5 130t-115.5 335zM272 1202q0 -156 84 -262t238 -106q145 0 233 100t88 268t-88 266q-84 102 -233 103q-147 0 -234.5 -100.5 t-87.5 -268.5z" />
<glyph unicode=":" horiz-adv-x="679" d="M287 0v172h174v-172h-174zM287 729v172h174v-172h-174z" />
<glyph unicode=";" horiz-adv-x="679" d="M287 729v172h174v-172h-174zM291 160h160v-320l-160 -157v477z" />
<glyph unicode="&#x3c;" horiz-adv-x="2396" d="M133 614l944 942h160l-885 -884h1913v-117h-1913l885 -885h-160z" />
<glyph unicode="=" d="M123 381v108h954v-108h-954zM123 737v111h954v-111h-954z" />
<glyph unicode="&#x3e;" horiz-adv-x="2396" d="M133 555v117h1913l-885 884h160l944 -942l-944 -944h-160l885 885h-1913z" />
<glyph unicode="?" horiz-adv-x="1138" d="M186 1266q0 86 29 155.5t88 132.5q121 123 301 123q174 0 296 -118.5t122 -292.5q0 -127 -102 -279l-199 -291q-41 -61 -41 -141v-109h-119v105q0 113 68 211l194 289q80 119 80 215q0 131 -85 218t-214 87q-133 0 -216 -90t-83 -215h-119zM541 0v156h157v-156h-157z" />
<glyph unicode="@" horiz-adv-x="1626" d="M180 367v817q0 215 122 347t335 132h350q209 0 335 -133t126 -346v-1184h-119v137q-113 -154 -325 -153q-209 0 -324 151q-100 135 -100 428q0 289 90 422q111 156 331 156q203 0 328 -158v207q0 180 -96 278.5t-266 98.5h-310q-160 0 -259 -97.5t-99 -279.5v-823 q0 -117 27.5 -176.5t117.5 -124.5l-82 -82q-111 74 -146.5 151.5t-35.5 231.5zM698 563q0 -217 54 -323q70 -152 262 -152q186 0 264 152q51 111 51 323q0 217 -51 322q-76 152 -264 151q-190 0 -262 -151q-54 -107 -54 -322z" />
<glyph unicode="A" horiz-adv-x="1404" d="M35 0l612 1663h111l612 -1663h-135l-145 403h-775l-145 -403h-135zM354 516h697l-349 979z" />
<glyph unicode="B" horiz-adv-x="1564" d="M256 0v1663h612q213 0 347.5 -116.5t134.5 -317.5q0 -129 -70 -230.5t-190 -144.5q135 -41 209.5 -149.5t74.5 -251.5q0 -219 -130 -336t-357 -117h-631zM383 113h489q168 0 272.5 91t104.5 249t-102.5 250t-274.5 92h-489v-682zM383 905h471q164 0 260 76 q109 84 109 248q0 160 -109 246q-96 76 -260 75h-471v-645z" />
<glyph unicode="C" horiz-adv-x="1503" d="M190 831q0 313 25 441.5t131 232.5q170 172 416 172q221 0 371.5 -129t193.5 -358h-129q-35 174 -151.5 274.5t-284.5 100.5q-188 0 -316 -129q-82 -82 -110 -213q-18 -111 -19 -392q0 -299 22.5 -409.5t106.5 -194.5q127 -129 316 -129q168 0 284.5 98.5t155.5 274.5 h125q-39 -223 -192.5 -354t-372.5 -131q-246 0 -416 170q-106 106 -131 232t-25 443z" />
<glyph unicode="D" horiz-adv-x="1581" d="M256 0v1663h559q264 0 416 -152q106 -109 141 -307q18 -111 19 -350q0 -268 -19 -373q-33 -219 -141 -329q-152 -152 -416 -152h-559zM383 113h401q231 0 357 127q84 90 112 290q12 104 13 324v51v43v35v29q0 102 -13 143q-23 176 -112 266q-127 129 -357 129h-401v-1437 z" />
<glyph unicode="E" horiz-adv-x="1394" d="M256 0v1663h1010v-113h-883v-655h752v-113h-752v-669h883v-113h-1010z" />
<glyph unicode="F" horiz-adv-x="1343" d="M256 0v1663h1010v-113h-883v-684h752v-112h-752v-754h-127z" />
<glyph unicode="G" horiz-adv-x="1519" d="M190 831q0 313 25 441.5t131 232.5q170 172 416 172q215 0 369.5 -132t197.5 -355h-127q-35 174 -154.5 274.5t-285.5 100.5q-188 0 -316 -129q-82 -82 -110 -213q-18 -111 -19 -392q0 -299 22.5 -409.5t106.5 -194.5q127 -129 316 -129q207 0 344 162q100 121 100 328 v149h-444v113h571v-270q0 -252 -135 -402q-178 -193 -436 -192q-246 0 -416 170q-106 106 -131 232t-25 443z" />
<glyph unicode="H" horiz-adv-x="1630" d="M256 0v1663h127v-768h866v768h125v-1663h-125v782h-866v-782h-127z" />
<glyph unicode="I" horiz-adv-x="638" d="M256 0v1663h127v-1663h-127z" />
<glyph unicode="J" horiz-adv-x="1161" d="M70 129l86 86q117 -117 278 -117q176 0 272.5 108.5t96.5 309.5v1147h127v-1174q0 -227 -134 -365t-362 -138q-221 0 -364 143z" />
<glyph unicode="K" horiz-adv-x="1505" d="M256 0v1663h127v-1040l842 1040h153l-514 -635l600 -1028h-149l-535 932l-397 -481v-451h-127z" />
<glyph unicode="L" horiz-adv-x="1335" d="M256 0v1663h127v-1550h883v-113h-1010z" />
<glyph unicode="M" horiz-adv-x="1908" d="M256 0v1663h127l580 -1282l565 1282h125v-1663h-125v1370l-506 -1137h-125l-514 1137v-1370h-127z" />
<glyph unicode="N" horiz-adv-x="1724" d="M256 0v1663h127l960 -1442v1442h125v-1663h-125l-960 1446v-1446h-127z" />
<glyph unicode="O" horiz-adv-x="1521" d="M190 831q0 313 25 441.5t131 232.5q170 172 416 172q244 0 416 -172q104 -104 133 -252q20 -104 20 -422q0 -313 -20 -421q-29 -147 -133 -254q-172 -170 -416 -170q-246 0 -416 170q-106 106 -131 232t-25 443zM317 831q0 -299 22.5 -409.5t106.5 -194.5 q127 -129 316 -129q186 0 315 129q80 80 109 211q18 113 18 393q0 299 -18 392q-25 129 -109 213q-129 129 -315 129q-188 0 -316 -129q-82 -82 -110 -213q-19 -111 -19 -392z" />
<glyph unicode="P" horiz-adv-x="1472" d="M256 0v1663h610q219 0 360.5 -128t141.5 -351q0 -219 -141.5 -349t-360.5 -130h-483v-705h-127zM383 817h469q172 0 280.5 92t108.5 275q0 182 -105.5 274t-283.5 92h-469v-733z" />
<glyph unicode="Q" horiz-adv-x="1519" d="M190 831q0 313 25 441.5t131 232.5q170 172 416 172q244 0 416 -172q104 -104 133 -252q20 -104 20 -422q0 -297 -18.5 -418.5t-100.5 -215.5l195 -197l-84 -84l-195 197q-160 -127 -366 -127q-246 0 -416 170q-106 106 -131 232t-25 443zM317 831q0 -299 22.5 -409.5 t106.5 -194.5q127 -129 316 -129q156 0 282 99l-233 233l84 84l229 -231q47 70 70 200q10 111 10 348q0 299 -18 392q-25 129 -109 213q-129 129 -315 129q-188 0 -316 -129q-82 -82 -110 -213q-19 -111 -19 -392z" />
<glyph unicode="R" horiz-adv-x="1531" d="M256 0v1663h633q211 0 344 -118t133 -328q0 -184 -101.5 -300t-281.5 -149l401 -768h-147l-397 766h-457v-766h-127zM383 879h489q164 0 265.5 85t101.5 250q0 166 -101.5 251t-265.5 85h-489v-671z" />
<glyph unicode="S" horiz-adv-x="1370" d="M119 205l88 90q111 -111 216 -154t257 -43q193 0 309.5 92.5t116.5 249.5q0 154 -90 234q-68 61 -242 90l-192 31q-428 68 -428 426q0 209 140 332.5t376 123.5q270 0 479 -180l-82 -82q-172 154 -403 154q-180 0 -282.5 -92.5t-102.5 -251.5q0 -143 87 -217t246 -103 l179 -26q201 -29 296 -111q145 -119 146 -322q0 -213 -150.5 -336.5t-410.5 -123.5q-334 0 -553 219z" />
<glyph unicode="T" horiz-adv-x="1257" d="M70 1550v113h1118v-113h-498v-1550h-125v1550h-495z" />
<glyph unicode="U" horiz-adv-x="1605" d="M233 539v1124h127v-1108q0 -203 120 -330t323 -127q199 0 321.5 127t122.5 330v1108h125v-1124q0 -240 -159.5 -396.5t-409.5 -156.5q-246 0 -408 154.5t-162 398.5z" />
<glyph unicode="V" horiz-adv-x="1245" d="M23 1663h133l467 -1442l467 1442h133l-545 -1663h-109z" />
<glyph unicode="W" horiz-adv-x="1964" d="M47 1663h133l350 -1446l388 1446h131l387 -1446l350 1446h133l-416 -1663h-129l-391 1448l-393 -1448h-127z" />
<glyph unicode="X" horiz-adv-x="1241" d="M43 0l508 852l-477 811h147l397 -698l400 698h145l-477 -811l514 -852h-147l-435 739l-434 -739h-141z" />
<glyph unicode="Y" horiz-adv-x="1153" d="M23 1663h137l422 -842l413 842h135l-491 -975v-688h-125v688z" />
<glyph unicode="Z" horiz-adv-x="1304" d="M147 0v133l875 1417h-840v113h975v-113l-881 -1437h881v-113h-1010z" />
<glyph unicode="[" horiz-adv-x="675" d="M227 -172v2007h344v-104h-225v-1799h225v-104h-344z" />
<glyph unicode="\" horiz-adv-x="788" d="M0 1835h123l665 -2007h-122z" />
<glyph unicode="]" horiz-adv-x="675" d="M104 -74h234v1811h-234v98h347v-2007h-347v98z" />
<glyph unicode="^" d="M178 985l369 692h106l369 -692h-119l-303 565l-303 -565h-119z" />
<glyph unicode="_" d="M0 -285h1200v-88h-1200v88z" />
<glyph unicode="`" horiz-adv-x="1167" d="M311 1720h156l227 -342h-137z" />
<glyph unicode="a" horiz-adv-x="1222" d="M131 307q0 158 102 240q51 39 125 62.5t164 23.5h365v125q0 276 -318 276q-209 0 -309 -143l-88 76q125 172 397 172q436 0 437 -369v-770h-119v113q-125 -127 -342 -127q-231 0 -332 102q-82 88 -82 219zM250 311q0 -221 295 -221q190 0 278 88q63 59 64 215v144h-350 q-287 -1 -287 -226z" />
<glyph unicode="b" horiz-adv-x="1259" d="M227 0v1663h119v-682q119 158 334 158q172 0 274 -99q145 -143 146 -477q0 -334 -146 -479q-98 -98 -274 -98q-213 0 -334 159v-145h-119zM346 563q0 -213 55 -323q76 -150 263 -150q184 0 260 150q57 106 57 323q0 211 -57 324q-74 147 -260 147q-184 0 -263 -147 q-55 -109 -55 -324z" />
<glyph unicode="c" horiz-adv-x="1150" d="M162 563q0 264 133 420t360 156q117 0 199 -36t174 -136l-82 -76q-129 143 -291 143q-193 0 -299 -149q-76 -113 -75 -322q0 -211 75 -323q104 -150 299 -150q162 0 291 143l82 -73q-88 -98 -174 -136t-199 -38q-223 0 -358 154.5t-135 422.5z" />
<glyph unicode="d" horiz-adv-x="1259" d="M162 563q0 334 143 477q98 98 277 99q213 0 333 -158v682h119v-1663h-119v145q-119 -160 -333 -159q-172 0 -277 98q-143 145 -143 479zM281 563q0 -213 55 -323q76 -150 262 -150q184 0 262 150q55 106 55 323q0 211 -55 324q-76 147 -262 147q-184 0 -262 -147 q-55 -109 -55 -324z" />
<glyph unicode="e" horiz-adv-x="1220" d="M162 563q0 268 118.5 422t331.5 154q209 0 330 -146.5t121 -402.5v-53h-782q0 -442 366 -443q174 0 309 135l91 -69q-174 -174 -408 -174q-477 -1 -477 577zM281 633h663q0 123 -38 211t-118 139q-37 23 -81.5 37t-94.5 14q-98 0 -177 -50t-116 -136q-18 -45 -28 -98.5 t-10 -116.5z" />
<glyph unicode="f" horiz-adv-x="708" d="M106 1036v88h156v244q0 131 69.5 213t200.5 82h103v-107h-82q-172 0 -172 -186v-246h254v-88h-254v-1036h-119v1036h-156z" />
<glyph unicode="g" horiz-adv-x="1259" d="M162 563q0 334 143 477q98 98 277 99q213 0 333 -158v143h119v-1187q0 -219 -123 -353.5t-338 -134.5q-121 0 -199.5 33t-170.5 117l80 79q74 -68 127 -92q70 -33 163 -32q170 0 261 112q82 102 81 279v200q-119 -160 -333 -159q-172 0 -277 98q-143 145 -143 479z M281 563q0 -213 55 -323q76 -150 262 -150q184 0 262 150q55 106 55 323q0 211 -55 324q-76 147 -262 147q-184 0 -262 -147q-55 -109 -55 -324z" />
<glyph unicode="h" horiz-adv-x="1304" d="M227 0v1663h119v-672q125 147 332 148q188 0 302 -113t114 -307v-719h-121v698q0 336 -309 336q-147 0 -232.5 -89t-85.5 -247v-698h-119z" />
<glyph unicode="i" horiz-adv-x="571" d="M213 1516v147h147v-147h-147zM227 0v1124h119v-1124h-119z" />
<glyph unicode="j" horiz-adv-x="571" d="M-29 -432h82q96 0 135 46t39 142v1368h119v-1370q0 -291 -272 -291h-103v105zM213 1516v147h147v-147h-147z" />
<glyph unicode="k" horiz-adv-x="1228" d="M227 0v1663h119v-1174l557 635h152l-371 -419l453 -705h-148l-387 618l-256 -296v-322h-119z" />
<glyph unicode="l" horiz-adv-x="669" d="M221 291v1372h119v-1368q0 -98 39 -144.5t135 -46.5h82v-104h-102q-273 0 -273 291z" />
<glyph unicode="m" horiz-adv-x="2048" d="M227 0v1124h119v-133q125 147 334 148q254 0 360 -205q131 205 383 205q190 0 302 -113t112 -307v-719h-117v698q0 336 -309 336q-145 0 -231 -86t-86 -229v-719h-121v698q0 336 -309 336q-147 0 -232.5 -89t-85.5 -247v-698h-119z" />
<glyph unicode="n" horiz-adv-x="1304" d="M227 0v1124h119v-133q125 147 332 148q190 0 303 -113t113 -307v-719h-121v698q0 336 -309 336q-147 0 -232.5 -89t-85.5 -247v-698h-119z" />
<glyph unicode="o" horiz-adv-x="1226" d="M162 563q0 307 139 453q123 123 313 123q188 0 314 -123q139 -139 139 -453q0 -309 -139 -452q-125 -125 -314 -125q-190 0 -313 125q-139 139 -139 452zM281 563q0 -272 98 -372.5t235 -100.5q133 0 233.5 98.5t100.5 374.5q0 270 -98 370.5t-236 100.5 q-133 0 -233 -98.5t-100 -372.5z" />
<glyph unicode="p" horiz-adv-x="1259" d="M227 -537v1661h119v-143q119 158 334 158q172 0 274 -99q145 -143 146 -477q0 -334 -146 -479q-98 -98 -274 -98q-213 0 -334 159v-682h-119zM346 563q0 -213 55 -323q76 -150 263 -150q184 0 260 150q57 106 57 323q0 211 -57 324q-74 147 -260 147q-184 0 -263 -147 q-55 -109 -55 -324z" />
<glyph unicode="q" horiz-adv-x="1259" d="M162 563q0 334 143 477q98 98 277 99q213 0 333 -158v143h119v-1661h-119v682q-119 -160 -333 -159q-172 0 -277 98q-143 145 -143 479zM281 563q0 -213 55 -323q76 -150 262 -150q184 0 262 150q55 106 55 323q0 211 -55 324q-76 147 -262 147q-184 0 -262 -147 q-55 -109 -55 -324z" />
<glyph unicode="r" horiz-adv-x="954" d="M227 0v1124h119v-147q102 162 328 162q162 0 272 -107l-86 -86q-90 88 -213 88q-137 0 -219 -100t-82 -240v-694h-119z" />
<glyph unicode="s" horiz-adv-x="1153" d="M117 147l82 82q131 -139 368 -139q338 0 338 229q0 168 -215 191l-186 14q-164 0 -251 79t-87 216q0 145 109.5 232.5t293.5 87.5q236 0 396 -119l-80 -80q-131 96 -316 96q-287 0 -286 -217q0 -168 229 -188l182 -17q156 -14 234 -69q94 -72 94 -226t-121 -243.5 t-330 -89.5q-286 -1 -454 161z" />
<glyph unicode="t" horiz-adv-x="757" d="M100 1036v88h154v361h119v-361h256v-88h-256v-745q0 -186 174 -187h82v-104h-105q-123 0 -196.5 81t-73.5 214v741h-154z" />
<glyph unicode="u" horiz-adv-x="1304" d="M213 406v718h119v-696q0 -338 311 -338q145 0 231.5 89t86.5 249v696h118v-1124h-118v133q-127 -147 -332 -147q-190 0 -307 112q-109 115 -109 308z" />
<glyph unicode="v" horiz-adv-x="1003" d="M33 1124h131l338 -985l338 985h131l-410 -1124h-117z" />
<glyph unicode="w" horiz-adv-x="1660" d="M33 1124h131l287 -985l321 985h117l323 -985l287 985h131l-360 -1124h-121l-318 938l-317 -938h-121z" />
<glyph unicode="x" horiz-adv-x="1073" d="M94 0l379 573l-362 551h143l285 -452l280 452h146l-365 -551l381 -573h-145l-297 473l-301 -473h-144z" />
<glyph unicode="y" horiz-adv-x="1003" d="M33 1124h131l338 -985l338 985h131l-522 -1429q-31 -90 -78 -131q-80 -74 -211 -74h-58v107h45q92 0 131 31.5t74 121.5l92 250z" />
<glyph unicode="z" horiz-adv-x="1054" d="M127 0v113l676 907h-639v104h766v-110l-680 -910h680v-104h-803z" />
<glyph unicode="{" horiz-adv-x="737" d="M117 780v103h43q55 0 98 43t43 141v483q0 162 61.5 223.5t225.5 61.5h33v-104h-31q-109 0 -139.5 -34t-30.5 -149v-483q0 -162 -141 -234q141 -74 141 -233v-483q0 -147 61 -170q31 -12 109 -13h31v-104h-33q-158 0 -222.5 61.5t-64.5 223.5v483q0 98 -44 141t-97 43h-43 z" />
<glyph unicode="|" horiz-adv-x="739" d="M311 -172v2007h119v-2007h-119z" />
<glyph unicode="}" horiz-adv-x="737" d="M117 -68h30q109 0 139.5 34t30.5 149v483q0 160 144 233q-143 72 -144 234v483q0 147 -61 170q-29 12 -109 13h-30v104h33q162 0 224 -61.5t62 -223.5v-483q0 -96 42 -140t102 -44h41v-103h-41q-57 0 -100.5 -43t-43.5 -141v-483q0 -160 -61.5 -222.5t-224.5 -62.5h-33 v104z" />
<glyph unicode="~" d="M123 596q80 78 123 104q66 39 149 39q70 0 238 -71q129 -53 178 -54q84 0 193 105l73 -72q-80 -80 -123 -106q-66 -39 -149 -39q-70 0 -238 71q-129 55 -178 56q-84 0 -192 -107z" />
<glyph unicode="&#xa2;" horiz-adv-x="1161" d="M162 854q0 244 111.5 394.5t308.5 178.5v236h100v-231q186 0 346 -175l-82 -73q-129 143 -264 143v-944q70 0 135.5 36t128.5 105l82 -73q-80 -86 -164 -129t-182 -43v-279h-100v283q-197 25 -308.5 176t-111.5 395zM281 854q0 -209 77.5 -322.5t223.5 -142.5v930 q-137 -23 -219 -138.5t-82 -326.5z" />
<glyph unicode="&#xa3;" horiz-adv-x="1253" d="M117 799v88h149v284q0 229 134.5 367.5t361.5 138.5q221 0 362 -143l-86 -86q-117 117 -276 117q-178 0 -273.5 -108.5t-95.5 -309.5v-260h369v-88h-369v-686h731v-113h-858v799h-149z" />
<glyph unicode="&#xa5;" horiz-adv-x="1150" d="M23 1663h133l424 -844l417 844h131l-380 -762h251v-88h-297l-63 -125v-123h360v-88h-360v-477h-125v477h-362v88h362v123l-63 125h-299v88h254z" />
<glyph unicode="&#xa8;" horiz-adv-x="1167" d="M272 1401v180h138v-180h-138zM758 1401v180h137v-180h-137z" />
<glyph unicode="&#xa9;" horiz-adv-x="2086" d="M199 831q0 350 247.5 598t597.5 248t597 -247.5t247 -598.5q0 -350 -246.5 -597.5t-597.5 -247.5q-350 0 -597.5 247.5t-247.5 597.5zM311 831q0 -301 217 -522t516 -221t516.5 221t217.5 522q0 299 -216 520.5t-518 221.5q-305 0 -519 -220.5t-214 -521.5zM639 831 q0 209 100 340q111 143 314 144q166 0 305 -125l-70 -70q-111 98 -235 99q-307 0 -308 -388q0 -385 308 -385q127 0 235 95l70 -70q-135 -121 -305 -121q-201 0 -314 144q-100 126 -100 337z" />
<glyph unicode="&#xab;" horiz-adv-x="1228" d="M98 618l457 459v-155l-303 -304l303 -303v-153zM582 618l456 459v-155l-303 -304l303 -303v-153z" />
<glyph unicode="&#xad;" horiz-adv-x="993" d="M190 561v109h613v-109h-613z" />
<glyph unicode="&#xae;" horiz-adv-x="2086" d="M199 831q0 350 247.5 598t597.5 248t597 -247.5t247 -598.5q0 -350 -246.5 -597.5t-597.5 -247.5q-350 0 -597.5 247.5t-247.5 597.5zM307 831q0 -301 219 -523t518 -222q301 0 518.5 221t217.5 524q0 299 -217 522.5t-519 223.5q-305 0 -521 -220.5t-216 -525.5z M778 365v935h299q117 0 203 -79.5t86 -196.5q0 -197 -213 -260l236 -399h-121l-232 389h-153v-389h-105zM883 848h182q84 0 140.5 49t56.5 127q0 76 -57.5 128t-139.5 52h-182v-356z" />
<glyph unicode="&#xb4;" horiz-adv-x="1167" d="M473 1378l227 342h156l-246 -342h-137z" />
<glyph unicode="&#xb8;" horiz-adv-x="1167" d="M422 -514l168 350h129l-150 -350h-147z" />
<glyph unicode="&#xbb;" horiz-adv-x="1228" d="M190 162v153l306 303l-306 304v155l459 -459zM674 162v153l305 303l-305 304v155l459 -459z" />
<glyph unicode="&#xc2;" horiz-adv-x="1404" d="M35 0l612 1663h111l612 -1663h-135l-145 403h-775l-145 -403h-135zM354 516h697l-349 979zM352 1822l287 342h127l287 -342h-133l-217 254l-217 -254h-134z" />
<glyph unicode="&#xc7;" horiz-adv-x="1503" d="M190 831q0 313 25 441.5t131 232.5q170 172 416 172q221 0 371.5 -129t193.5 -358h-129q-35 174 -151.5 274.5t-284.5 100.5q-188 0 -316 -129q-82 -82 -110 -213q-18 -111 -19 -392q0 -299 22.5 -409.5t106.5 -194.5q127 -129 316 -129q168 0 284.5 98.5t155.5 274.5 h125q-37 -205 -172 -333t-334 -150v-238h-114v238q-96 0 -189.5 45t-171.5 123q-106 106 -131 232t-25 443z" />
<glyph unicode="&#xce;" horiz-adv-x="638" d="M256 0v1663h127v-1663h-127zM-35 1822l287 342h127l287 -342h-133l-217 254l-217 -254h-134z" />
<glyph unicode="&#xd6;" horiz-adv-x="1521" d="M190 831q0 313 25 441.5t131 232.5q170 172 416 172q244 0 416 -172q104 -104 133 -252q20 -104 20 -422q0 -313 -20 -421q-29 -147 -133 -254q-172 -170 -416 -170q-246 0 -416 170q-106 106 -131 232t-25 443zM317 831q0 -299 22.5 -409.5t106.5 -194.5 q127 -129 316 -129q186 0 315 129q80 80 109 211q18 113 18 393q0 299 -18 392q-25 129 -109 213q-129 129 -315 129q-188 0 -316 -129q-82 -82 -110 -213q-19 -111 -19 -392zM450 1845v180h138v-180h-138zM936 1845v180h137v-180h-137z" />
<glyph unicode="&#xdb;" horiz-adv-x="1603" d="M233 539v1124h127v-1108q0 -203 120 -330t323 -127q199 0 321.5 127t122.5 330v1108h125v-1124q0 -240 -159.5 -396.5t-409.5 -156.5q-246 0 -408 154.5t-162 398.5zM452 1822l287 342h127l287 -342h-133l-217 254l-217 -254h-134z" />
<glyph unicode="&#xdc;" horiz-adv-x="1603" d="M233 539v1124h127v-1108q0 -203 120 -330t323 -127q199 0 321.5 127t122.5 330v1108h125v-1124q0 -240 -159.5 -396.5t-409.5 -156.5q-246 0 -408 154.5t-162 398.5zM491 1845v180h138v-180h-138zM977 1845v180h137v-180h-137z" />
<glyph unicode="&#xe2;" horiz-adv-x="1222" d="M131 307q0 158 102 240q51 39 125 62.5t164 23.5h365v125q0 276 -318 276q-209 0 -309 -143l-88 76q125 172 397 172q436 0 437 -369v-770h-119v113q-125 -127 -342 -127q-231 0 -332 102q-82 88 -82 219zM250 311q0 -221 295 -221q190 0 278 88q63 59 64 215v144h-350 q-287 -1 -287 -226zM231 1378l287 342h127l287 -342h-133l-217 254l-217 -254h-134z" />
<glyph unicode="&#xe7;" horiz-adv-x="1161" d="M162 563q0 264 133 420t360 156q117 0 199 -36t174 -136l-82 -76q-129 143 -291 143q-193 0 -299 -149q-76 -113 -75 -322q0 -211 75 -323q104 -150 299 -150q162 0 291 143l78 -71q-137 -152 -303 -174v-238h-117v238q-205 16 -323.5 169.5t-118.5 405.5z" />
<glyph unicode="&#xee;" horiz-adv-x="571" d="M227 0v1124h119v-1124h-119zM-66 1378l287 342h127l287 -342h-133l-217 254l-217 -254h-134z" />
<glyph unicode="&#xf6;" horiz-adv-x="1226" d="M162 563q0 307 139 453q123 123 313 123q188 0 314 -123q139 -139 139 -453q0 -309 -139 -452q-125 -125 -314 -125q-190 0 -313 125q-139 139 -139 452zM281 563q0 -272 98 -372.5t235 -100.5q133 0 233.5 98.5t100.5 374.5q0 270 -98 370.5t-236 100.5 q-133 0 -233 -98.5t-100 -372.5zM303 1401v180h138v-180h-138zM789 1401v180h137v-180h-137z" />
<glyph unicode="&#xfb;" horiz-adv-x="1304" d="M213 406v718h119v-696q0 -338 311 -338q145 0 231.5 89t86.5 249v696h118v-1124h-118v133q-127 -147 -332 -147q-190 0 -307 112q-109 115 -109 308zM294 1378l287 342h127l287 -342h-133l-217 254l-217 -254h-134z" />
<glyph unicode="&#xfc;" horiz-adv-x="1304" d="M213 406v718h119v-696q0 -338 311 -338q145 0 231.5 89t86.5 249v696h118v-1124h-118v133q-127 -147 -332 -147q-190 0 -307 112q-109 115 -109 308zM333 1401v180h138v-180h-138zM819 1401v180h137v-180h-137z" />
<glyph unicode="&#x11e;" horiz-adv-x="1519" d="M190 831q0 313 25 441.5t131 232.5q170 172 416 172q215 0 369.5 -132t197.5 -355h-127q-35 174 -154.5 274.5t-285.5 100.5q-188 0 -316 -129q-82 -82 -110 -213q-18 -111 -19 -392q0 -299 22.5 -409.5t106.5 -194.5q127 -129 316 -129q207 0 344 162q100 121 100 328 v149h-444v113h571v-270q0 -252 -135 -402q-178 -193 -436 -192q-246 0 -416 170q-106 106 -131 232t-25 443zM360 1849v115h793v-115h-793z" />
<glyph unicode="&#x11f;" horiz-adv-x="1259" d="M162 563q0 334 143 477q98 98 277 99q213 0 333 -158v143h119v-1187q0 -219 -123 -353.5t-338 -134.5q-121 0 -199.5 33t-170.5 117l80 79q74 -68 127 -92q70 -33 163 -32q170 0 261 112q82 102 81 279v200q-119 -160 -333 -159q-172 0 -277 98q-143 145 -143 479z M281 563q0 -213 55 -323q76 -150 262 -150q184 0 262 150q55 106 55 323q0 211 -55 324q-76 147 -262 147q-184 0 -262 -147q-55 -109 -55 -324zM289 1397v106h692v-106h-692z" />
<glyph unicode="&#x130;" horiz-adv-x="638" d="M256 0v1663h127v-1663h-127zM256 1845v178h141v-178h-141z" />
<glyph unicode="&#x131;" horiz-adv-x="571" d="M227 0v1124h119v-1124h-119z" />
<glyph unicode="&#x15e;" horiz-adv-x="1370" d="M119 205l88 90q111 -111 216 -154t257 -43q193 0 309.5 92.5t116.5 249.5q0 154 -90 234q-68 61 -242 90l-192 31q-428 68 -428 426q0 209 140 332.5t376 123.5q270 0 479 -180l-82 -82q-172 154 -403 154q-180 0 -282.5 -92.5t-102.5 -251.5q0 -143 87 -217t246 -103 l179 -26q201 -29 296 -111q145 -119 146 -322q0 -195 -132 -315.5t-364 -142.5v-238h-116v238q-143 0 -267 55.5t-235 161.5z" />
<glyph unicode="&#x15f;" horiz-adv-x="1153" d="M117 147l82 82q131 -139 368 -139q338 0 338 229q0 168 -215 191l-186 14q-164 0 -251 79t-87 216q0 145 109.5 232.5t293.5 87.5q236 0 396 -119l-80 -80q-131 96 -316 96q-287 0 -286 -217q0 -168 229 -188l182 -17q156 -14 234 -69q94 -72 94 -226q0 -139 -99.5 -224 t-277.5 -107v-238h-115v236q-127 0 -230 40.5t-183 120.5z" />
<glyph unicode="&#x2c6;" horiz-adv-x="1167" d="M233 1378l287 342h127l287 -342h-133l-217 254l-217 -254h-134z" />
<glyph unicode="&#x2da;" horiz-adv-x="1167" d="M317 1581q0 104 78 185t189 81q106 0 186 -79.5t80 -186.5q0 -111 -80 -189.5t-186 -78.5q-111 0 -189 77.5t-78 190.5zM414 1581q0 -68 49 -119t121 -51q70 0 118 47q25 25 38.5 55.5t13.5 67.5q0 70 -50.5 119t-119.5 49q-68 0 -119 -49t-51 -119z" />
<glyph unicode="&#x2dc;" horiz-adv-x="1167" d="M223 1507q113 113 209 113q70 0 162 -55q76 -49 129 -49q57 0 139 75l70 -67q-113 -111 -209 -111q-61 0 -152.5 52.5t-138.5 52.5q-55 0 -137 -78z" />
<glyph unicode="&#x2000;" horiz-adv-x="1138" />
<glyph unicode="&#x2001;" horiz-adv-x="2277" />
<glyph unicode="&#x2002;" horiz-adv-x="1138" />
<glyph unicode="&#x2003;" horiz-adv-x="2277" />
<glyph unicode="&#x2004;" horiz-adv-x="757" />
<glyph unicode="&#x2005;" horiz-adv-x="569" />
<glyph unicode="&#x2006;" horiz-adv-x="378" />
<glyph unicode="&#x2007;" horiz-adv-x="378" />
<glyph unicode="&#x2008;" horiz-adv-x="284" />
<glyph unicode="&#x2009;" horiz-adv-x="454" />
<glyph unicode="&#x200a;" horiz-adv-x="124" />
<glyph unicode="&#x2010;" horiz-adv-x="993" d="M190 561v109h613v-109h-613z" />
<glyph unicode="&#x2011;" horiz-adv-x="993" d="M190 561v109h613v-109h-613z" />
<glyph unicode="&#x2012;" horiz-adv-x="993" d="M190 561v109h613v-109h-613z" />
<glyph unicode="&#x2013;" d="M123 561v109h954v-109h-954z" />
<glyph unicode="&#x2014;" horiz-adv-x="2037" d="M190 561v109h1657v-109h-1657z" />
<glyph unicode="&#x2018;" horiz-adv-x="606" d="M221 1499v164l164 162v-326h-164z" />
<glyph unicode="&#x2019;" horiz-adv-x="606" d="M221 1335v328h164v-164z" />
<glyph unicode="&#x201a;" horiz-adv-x="606" d="M221 -164v328h164v-164z" />
<glyph unicode="&#x201c;" horiz-adv-x="970" d="M221 1499v164l164 162v-326h-164zM586 1499v164l164 162v-326h-164z" />
<glyph unicode="&#x201d;" horiz-adv-x="970" d="M221 1335v328h164v-164zM586 1335v328h164v-164z" />
<glyph unicode="&#x201e;" horiz-adv-x="970" d="M221 -164v328h164v-164zM586 -164v328h164v-164z" />
<glyph unicode="&#x2026;" horiz-adv-x="1689" d="M221 0v172h174v-172h-174zM758 0v172h174v-172h-174zM1296 0v172h172v-172h-172z" />
<glyph unicode="&#x202f;" horiz-adv-x="454" />
<glyph unicode="&#x2039;" horiz-adv-x="638" d="M256 0v1663h127v-1663h-127zM256 1845v178h141v-178h-141z" />
<glyph unicode="&#x203a;" horiz-adv-x="571" d="M227 0v1124h119v-1124h-119z" />
<glyph unicode="&#x205f;" horiz-adv-x="569" />
<glyph unicode="&#x2122;" horiz-adv-x="1888" d="M74 1567v96h674v-96h-285v-901h-103v901h-286zM932 666v997h102l312 -631l309 631h102v-997h-102v766l-256 -510h-109l-256 510v-766h-102z" />
<glyph unicode="&#xe000;" horiz-adv-x="1125" d="M0 1125h1125v-1125h-1125v1125z" />
</font>
</defs>
</svg>
